<svg width="64" height="64" fill="none" xmlns="http://www.w3.org/2000/svg"><rect width="64" height="64" rx="8" fill="url(#a)"/><path d="M19.209 33.937v-9.3h5.199V41h-4.965v-3.047h-.17a4.759 4.759 0 0 1-1.854 2.386c-.866.583-1.914.874-3.143.874-1.115 0-2.095-.256-2.94-.767a5.225 5.225 0 0 1-1.97-2.141c-.47-.924-.708-2.003-.715-3.239v-10.43h5.21v9.407c.007.888.241 1.588.703 2.099.462.511 1.09.767 1.886.767a2.84 2.84 0 0 0 1.395-.34c.42-.235.75-.573.99-1.013.25-.447.374-.987.374-1.62ZM27.124 41V24.636h4.953v3.005h.181c.341-.995.917-1.78 1.726-2.355.81-.575 1.776-.863 2.898-.863 1.136 0 2.11.292 2.92.874a3.826 3.826 0 0 1 1.544 2.344h.17c.306-.973.902-1.751 1.79-2.333.888-.59 1.935-.885 3.143-.885 1.548 0 2.805.498 3.771 1.492.966.987 1.449 2.344 1.449 4.07V41h-5.21v-9.822c0-.817-.209-1.439-.628-1.865-.42-.433-.962-.65-1.63-.65-.717 0-1.282.235-1.694.703-.405.462-.607 1.084-.607 1.865V41h-5.007v-9.876c0-.76-.206-1.36-.618-1.8-.412-.44-.955-.66-1.63-.66-.455 0-.856.11-1.204.33a2.195 2.195 0 0 0-.82.916c-.192.398-.288.866-.288 1.406V41h-5.21Zm30.103.309c-.767 0-1.424-.27-1.971-.81a2.633 2.633 0 0 1-.8-1.96 2.574 2.574 0 0 1 .8-1.928 2.705 2.705 0 0 1 1.97-.81c.725 0 1.364.27 1.918.81.561.533.846 1.175.853 1.928a2.645 2.645 0 0 1-.405 1.396 2.907 2.907 0 0 1-1.012 1.001 2.57 2.57 0 0 1-1.353.373Z" fill="url(#b)"/><defs><linearGradient id="a" x1="47.754" y1="14.942" x2="-.563" y2="63.439" gradientUnits="userSpaceOnUse"><stop stop-color="#00C2FF"/><stop offset="1" stop-color="red"/></linearGradient><linearGradient id="b" x1="50.814" y1="23.538" x2="14.619" y2="43.22" gradientUnits="userSpaceOnUse"><stop/><stop offset="1" stop-color="#782C2C"/></linearGradient></defs></svg>