<svg width="90" height="90" fill="none" xmlns="http://www.w3.org/2000/svg"><rect width="90" height="90" rx="10" fill="url(#a)"/><path d="M28.102 46.63V33.995h7.063v22.23H28.42v-4.14h-.232a6.466 6.466 0 0 1-2.518 3.243c-1.177.79-2.6 1.186-4.27 1.186-1.514 0-2.846-.347-3.994-1.042-1.148-.694-2.04-1.664-2.678-2.909-.636-1.254-.96-2.72-.97-4.4V33.996h7.078v12.78c.01 1.205.328 2.156.955 2.85.627.695 1.481 1.042 2.562 1.042.704 0 1.336-.154 1.896-.463a3.42 3.42 0 0 0 1.346-1.375c.337-.608.506-1.34.506-2.2Zm10.752 9.595v-22.23h6.73v4.081h.246c.463-1.35 1.245-2.417 2.345-3.198 1.1-.782 2.412-1.172 3.936-1.172 1.544 0 2.866.395 3.966 1.186 1.1.791 1.799 1.853 2.098 3.184h.232c.415-1.322 1.225-2.378 2.431-3.17 1.206-.8 2.63-1.2 4.27-1.2 2.103 0 3.81.675 5.123 2.026 1.312 1.34 1.968 3.184 1.968 5.528v14.965h-7.077V42.88c0-1.11-.285-1.954-.854-2.532-.57-.59-1.307-.883-2.214-.883-.975 0-1.742.318-2.301.955-.55.627-.825 1.471-.825 2.532v13.272h-6.802V42.809c0-1.033-.28-1.848-.84-2.446-.56-.598-1.297-.897-2.214-.897-.618 0-1.163.15-1.636.448a2.98 2.98 0 0 0-1.114 1.245c-.26.54-.39 1.177-.39 1.91v13.156h-7.078Zm40.895.42a3.675 3.675 0 0 1-2.677-1.1c-.734-.734-1.096-1.621-1.086-2.663-.01-1.023.352-1.896 1.086-2.62a3.675 3.675 0 0 1 2.677-1.1c.984 0 1.853.367 2.605 1.1.762.724 1.148 1.597 1.158 2.62a3.593 3.593 0 0 1-.55 1.896 3.95 3.95 0 0 1-1.375 1.36 3.491 3.491 0 0 1-1.838.507Z" fill="url(#b)"/><defs><linearGradient id="a" x1="67.154" y1="21.012" x2="-.791" y2="89.212" gradientUnits="userSpaceOnUse"><stop stop-color="#00C2FF"/><stop offset="1" stop-color="red"/></linearGradient><linearGradient id="b" x1="70.322" y1="37.033" x2="20.819" y2="63.259" gradientUnits="userSpaceOnUse"><stop/><stop offset="1" stop-color="#742929"/></linearGradient></defs></svg>